<mxfile host="app.diagrams.net" modified="2023-12-25T07:12:38.845Z" agent="Mozilla/5.0 (Windows NT 10.0; Win64; x64) AppleWebKit/537.36 (KHTML, like Gecko) Chrome/119.0.0.0 Safari/537.36 Edg/119.0.0.0" etag="UYNYtONMlf1IVpQqpby3" version="21.6.1" type="github">
  <diagram id="p0UqSBnbMqRgTsdE9Ta6" name="Page-2">
    <mxGraphModel dx="4125" dy="4105" grid="1" gridSize="10" guides="1" tooltips="1" connect="1" arrows="1" fold="1" page="1" pageScale="1" pageWidth="1100" pageHeight="850" math="0" shadow="0">
      <root>
        <mxCell id="0" />
        <mxCell id="1" parent="0" />
        <mxCell id="tLGjmJb_fDD6LlT94jQF-3" value="" style="group" vertex="1" connectable="0" parent="1">
          <mxGeometry x="620" y="-1310" width="2200" height="1690" as="geometry" />
        </mxCell>
        <mxCell id="tLGjmJb_fDD6LlT94jQF-1" value="" style="rounded=1;arcSize=10;dashed=0;fillColor=none;gradientColor=none;strokeWidth=2;" vertex="1" parent="tLGjmJb_fDD6LlT94jQF-3">
          <mxGeometry width="2200" height="1690" as="geometry" />
        </mxCell>
        <mxCell id="tLGjmJb_fDD6LlT94jQF-2" value="[]" style="dashed=0;html=1;shape=mxgraph.aws3.cloud;fillColor=#F58536;gradientColor=none;dashed=0;" vertex="1" parent="tLGjmJb_fDD6LlT94jQF-3">
          <mxGeometry x="151.72413793103448" y="28.64406779661017" width="249.26108374384236" height="186.1864406779661" as="geometry" />
        </mxCell>
      </root>
    </mxGraphModel>
  </diagram>
</mxfile>
